<svg width="362" height="93" viewBox="0 0 362 93" fill="none" xmlns="http://www.w3.org/2000/svg">
<path d="M27.328 58.728C27.328 57.576 27.456 56.136 27.712 54.408C28.032 52.68 28.64 49.928 29.536 46.152C30.432 42.504 31.008 39.88 31.264 38.28C31.52 36.68 31.648 35.336 31.648 34.248C31.648 32.648 31.328 31.432 30.688 30.6C30.112 29.768 29.248 29.352 28.096 29.352C26.56 29.352 25.056 30.28 23.584 32.136C22.176 33.928 21.248 35.816 20.8 37.8L14.176 69H0.352L14.272 3.72L28.48 1.8L23.296 25.992C24.896 24.2 26.624 22.856 28.48 21.96C30.336 21.064 32.352 20.616 34.528 20.616C37.92 20.616 40.544 21.544 42.4 23.4C44.256 25.256 45.184 27.944 45.184 31.464C45.184 32.936 44.992 34.696 44.608 36.744C44.288 38.728 43.616 41.8 42.592 45.96C41.76 49.224 41.216 51.528 40.96 52.872C40.704 54.216 40.576 55.336 40.576 56.232C40.576 57.576 40.896 58.6 41.536 59.304C42.176 59.944 43.136 60.264 44.416 60.264C46.016 60.264 47.392 59.72 48.544 58.632C49.696 57.544 51.008 55.272 52.48 51.816H56.512C54.464 57.768 51.968 62.216 49.024 65.16C46.144 68.104 42.688 69.576 38.656 69.576C35.072 69.576 32.288 68.616 30.304 66.696C28.32 64.712 27.328 62.056 27.328 58.728ZM83.6688 25.416V26.088L84.7248 21H98.5488L91.6368 53.64C91.5088 54.216 91.4128 54.76 91.3488 55.272C91.2848 55.72 91.2528 56.2 91.2528 56.712C91.2528 58.12 91.5728 59.176 92.2128 59.88C92.8528 60.52 93.8448 60.84 95.1888 60.84C96.8528 60.84 98.3568 60.072 99.7008 58.536C101.045 56.936 102.133 54.696 102.965 51.816H106.997C104.949 57.704 102.293 62.152 99.0288 65.16C95.7648 68.104 91.9888 69.576 87.7008 69.576C84.9488 69.576 82.7408 68.808 81.0768 67.272C79.4768 65.736 78.5488 63.56 78.2928 60.744C76.3088 63.688 74.1008 65.896 71.6688 67.368C69.3008 68.84 66.7408 69.576 63.9888 69.576C60.0208 69.576 56.8848 68.232 54.5808 65.544C52.3408 62.856 51.2207 59.048 51.2207 54.12C51.2207 50.536 51.7647 46.792 52.8528 42.888C53.9408 38.984 55.4448 35.432 57.3648 32.232C59.7328 28.456 62.4848 25.576 65.6208 23.592C68.7568 21.544 72.1808 20.52 75.8928 20.52C78.3888 20.52 80.3088 20.968 81.6528 21.864C82.9968 22.696 83.6688 23.88 83.6688 25.416ZM82.8048 30.12C82.8048 29.16 82.4528 28.328 81.7488 27.624C81.0448 26.856 80.0848 26.472 78.8688 26.472C75.3488 26.472 72.2128 29.416 69.4608 35.304C66.7728 41.192 65.4288 47.016 65.4288 52.776C65.4288 55.272 65.7808 57.16 66.4848 58.44C67.1888 59.656 68.4368 60.264 70.2288 60.264C71.8928 60.264 73.4928 59.464 75.0288 57.864C76.6288 56.264 77.6848 54.248 78.1968 51.816L82.8048 30.12ZM106.454 21H109.622L112.502 7.752L126.71 5.832L123.446 21H129.206L128.438 24.84H122.678L116.534 53.64C116.406 54.216 116.31 54.76 116.246 55.272C116.182 55.72 116.15 56.2 116.15 56.712C116.15 57.992 116.438 58.92 117.014 59.496C117.654 60.008 118.678 60.264 120.086 60.264C121.878 60.264 123.574 59.496 125.174 57.96C126.774 56.36 127.958 54.312 128.726 51.816H132.758C130.71 57.64 127.958 62.056 124.502 65.064C121.046 68.072 117.078 69.576 112.598 69.576C109.398 69.576 106.87 68.584 105.014 66.6C103.222 64.552 102.326 61.704 102.326 58.056C102.326 57.224 102.39 56.296 102.518 55.272C102.646 54.184 102.838 53.032 103.094 51.816L108.854 24.84H105.686L106.454 21ZM163.451 29.352C163.451 34.664 161.275 39.304 156.923 43.272C152.571 47.176 147.387 49.288 141.371 49.608C141.307 50.696 141.243 51.528 141.179 52.104C141.179 52.616 141.179 53.064 141.179 53.448C141.179 56.392 141.659 58.472 142.619 59.688C143.643 60.904 145.467 61.512 148.091 61.512C151.099 61.512 153.851 60.84 156.347 59.496C158.907 58.088 161.819 55.528 165.083 51.816H168.347C164.635 57.832 160.603 62.312 156.251 65.256C151.899 68.136 147.131 69.576 141.947 69.576C137.019 69.576 133.275 68.296 130.715 65.736C128.219 63.176 126.971 59.368 126.971 54.312C126.971 50.664 127.547 46.792 128.699 42.696C129.851 38.6 131.387 34.952 133.307 31.752C135.675 27.912 138.491 25.032 141.755 23.112C145.083 21.128 148.795 20.136 152.891 20.136C156.411 20.136 159.035 20.904 160.763 22.44C162.555 23.912 163.451 26.216 163.451 29.352ZM153.659 25.224C151.483 25.224 149.275 27.176 147.035 31.08C144.859 34.92 143.227 39.56 142.139 45C145.851 44.744 149.083 43.048 151.835 39.912C154.651 36.712 156.059 33.128 156.059 29.16C156.059 27.816 155.867 26.824 155.483 26.184C155.099 25.544 154.491 25.224 153.659 25.224ZM213.321 58.728C213.321 57.576 213.449 56.136 213.705 54.408C214.025 52.68 214.633 49.928 215.529 46.152C216.425 42.504 217.001 39.88 217.257 38.28C217.513 36.68 217.641 35.336 217.641 34.248C217.641 32.648 217.353 31.432 216.777 30.6C216.201 29.768 215.337 29.352 214.185 29.352C212.649 29.352 211.209 30.152 209.865 31.752C208.585 33.288 207.529 35.432 206.697 38.184L200.169 69H186.345L193.353 35.88C193.481 35.496 193.545 35.112 193.545 34.728C193.609 34.344 193.641 33.928 193.641 33.48C193.641 32.2 193.385 31.176 192.873 30.408C192.361 29.64 191.657 29.256 190.761 29.256C189.097 29.256 187.593 30.056 186.249 31.656C184.905 33.192 183.817 35.368 182.985 38.184L176.457 69H162.633L172.809 21H186.633L185.577 25.992C187.177 24.136 188.937 22.76 190.857 21.864C192.777 20.968 194.921 20.52 197.289 20.52C200.105 20.52 202.313 21.224 203.913 22.632C205.577 23.976 206.665 26.024 207.177 28.776C208.969 26.024 210.953 23.976 213.129 22.632C215.305 21.288 217.769 20.616 220.521 20.616C223.913 20.616 226.537 21.544 228.393 23.4C230.249 25.256 231.177 27.944 231.177 31.464C231.177 32.936 230.985 34.696 230.601 36.744C230.281 38.728 229.609 41.8 228.585 45.96C227.753 49.224 227.209 51.528 226.953 52.872C226.697 54.216 226.569 55.336 226.569 56.232C226.569 57.576 226.889 58.6 227.529 59.304C228.169 59.944 229.129 60.264 230.409 60.264C232.009 60.264 233.385 59.72 234.537 58.632C235.689 57.544 237.001 55.272 238.473 51.816H242.505C240.457 57.768 237.961 62.216 235.017 65.16C232.137 68.104 228.681 69.576 224.649 69.576C221.065 69.576 218.281 68.616 216.297 66.696C214.313 64.712 213.321 62.056 213.321 58.728ZM237.125 54.216C237.125 50.568 237.701 46.696 238.853 42.6C240.069 38.504 241.701 34.856 243.749 31.656C246.117 27.88 248.965 25.032 252.293 23.112C255.621 21.128 259.333 20.136 263.429 20.136C267.525 20.136 270.597 21.416 272.645 23.976C274.693 26.536 275.717 30.376 275.717 35.496C275.845 35.56 275.973 35.624 276.101 35.688C276.293 35.688 276.517 35.688 276.773 35.688C278.757 35.688 281.125 35.144 283.877 34.056C286.629 32.968 289.189 31.592 291.557 29.928L292.421 32.52C290.629 34.44 288.229 36.104 285.221 37.512C282.277 38.92 279.013 39.912 275.429 40.488C274.661 49.128 272.165 56.104 267.941 61.416C263.717 66.728 258.565 69.384 252.485 69.384C247.493 69.384 243.685 68.104 241.061 65.544C238.437 62.984 237.125 59.208 237.125 54.216ZM264.197 25.992C261.125 25.992 258.213 29.096 255.461 35.304C252.773 41.512 251.429 47.4 251.429 52.968C251.429 55.976 251.749 58.024 252.389 59.112C253.093 60.2 254.405 60.744 256.325 60.744C258.693 60.744 260.933 58.824 263.045 54.984C265.221 51.144 266.693 46.408 267.461 40.776C266.565 40.584 265.893 40.168 265.445 39.528C265.061 38.824 264.869 37.896 264.869 36.744C264.869 35.528 265.125 34.472 265.637 33.576C266.149 32.68 266.885 32.008 267.845 31.56C267.717 29.512 267.365 28.072 266.789 27.24C266.277 26.408 265.413 25.992 264.197 25.992ZM314.013 25.416V25.992L315.069 21H328.893L319.389 65.544C322.589 64.392 325.085 62.792 326.877 60.744C328.733 58.632 330.269 55.656 331.485 51.816H335.517C334.045 56.68 331.933 60.584 329.181 63.528C326.493 66.472 322.941 68.552 318.525 69.768L317.085 76.68C315.933 82.056 313.917 86.12 311.036 88.872C308.157 91.624 304.413 93 299.805 93C296.541 93 293.917 92.168 291.933 90.504C290.013 88.84 289.053 86.568 289.053 83.688C289.053 80.552 290.333 77.768 292.893 75.336C295.517 72.968 299.453 70.984 304.701 69.384L305.853 64.296C304.189 66.024 302.397 67.336 300.477 68.232C298.557 69.128 296.509 69.576 294.333 69.576C290.365 69.576 287.229 68.232 284.925 65.544C282.685 62.856 281.564 59.048 281.564 54.12C281.564 50.536 282.108 46.792 283.197 42.888C284.285 38.984 285.789 35.432 287.709 32.232C290.077 28.456 292.829 25.576 295.965 23.592C299.101 21.544 302.525 20.52 306.237 20.52C308.733 20.52 310.653 20.968 311.997 21.864C313.341 22.696 314.013 23.88 314.013 25.416ZM313.149 30.024C313.085 29 312.701 28.168 311.997 27.528C311.293 26.824 310.365 26.472 309.213 26.472C305.693 26.472 302.557 29.416 299.805 35.304C297.117 41.192 295.773 47.016 295.773 52.776C295.773 55.272 296.125 57.16 296.829 58.44C297.533 59.656 298.781 60.264 300.573 60.264C302.109 60.264 303.613 59.56 305.085 58.152C306.621 56.744 307.677 54.952 308.253 52.776L313.149 30.024ZM303.741 74.184C300.541 75.4 298.173 76.648 296.637 77.928C295.101 79.272 294.333 80.744 294.333 82.344C294.333 83.176 294.653 83.912 295.293 84.552C295.933 85.192 296.701 85.512 297.597 85.512C298.685 85.512 299.741 84.744 300.765 83.208C301.789 81.672 302.589 79.592 303.165 76.968L303.741 74.184ZM355.181 8.232C355.181 10.344 354.413 12.136 352.877 13.608C351.405 15.08 349.613 15.816 347.501 15.816C345.389 15.816 343.597 15.08 342.125 13.608C340.653 12.136 339.917 10.344 339.917 8.232C339.917 6.12 340.653 4.328 342.125 2.856C343.597 1.32 345.389 0.551994 347.501 0.551994C349.613 0.551994 351.405 1.32 352.877 2.856C354.413 4.328 355.181 6.12 355.181 8.232ZM330.701 58.056C330.701 57.224 330.765 56.296 330.893 55.272C331.021 54.184 331.213 53.032 331.469 51.816L337.997 21H351.821L344.909 53.64C344.781 54.216 344.685 54.76 344.621 55.272C344.557 55.72 344.525 56.2 344.525 56.712C344.525 57.992 344.813 58.92 345.389 59.496C346.029 60.008 347.053 60.264 348.461 60.264C350.253 60.264 351.949 59.496 353.549 57.96C355.149 56.36 356.333 54.312 357.101 51.816H361.133C359.085 57.64 356.333 62.056 352.877 65.064C349.421 68.072 345.453 69.576 340.973 69.576C337.773 69.576 335.245 68.584 333.389 66.6C331.597 64.552 330.701 61.704 330.701 58.056Z" fill="black"/>
</svg>
